<svg width="64" height="64" viewBox="0 0 64 64" xmlns="http://www.w3.org/2000/svg">
  <rect width="64" height="64" rx="12" fill="#111318"/>
  <defs>
    <linearGradient id="sg" x1="0" y1="0" x2="1" y2="0">
      <stop offset="0%" stop-color="#22c55e" stop-opacity="0"/>
      <stop offset="50%" stop-color="#22c55e" stop-opacity="1"/>
      <stop offset="100%" stop-color="#22c55e" stop-opacity="0"/>
    </linearGradient>
  </defs>
  <rect x="12" y="6" width="40" height="50" rx="4" fill="#1a2a1a" stroke="#22c55e" stroke-width="2"/>
  <polyline points="12,56 16.5,49 21,56 25.5,49 30,56 34.5,49 39,56 43.5,49 48,56 52,56" fill="none" stroke="#22c55e" stroke-width="2" stroke-linejoin="round"/>
  <line x1="19" y1="18" x2="45" y2="18" stroke="#22c55e" stroke-width="1.4" stroke-linecap="round" opacity="0.35"/>
  <line x1="19" y1="25" x2="38" y2="25" stroke="#22c55e" stroke-width="1.4" stroke-linecap="round" opacity="0.25"/>
  <rect x="12" y="30" width="40" height="11" fill="#22c55e" opacity="0.08"/>
  <line x1="5" y1="35.5" x2="59" y2="35.5" stroke="url(#sg)" stroke-width="2.2"/>
  <line x1="5" y1="29" x2="5" y2="42" stroke="#22c55e" stroke-width="1.8" stroke-linecap="round" opacity="0.7"/>
  <line x1="59" y1="29" x2="59" y2="42" stroke="#22c55e" stroke-width="1.8" stroke-linecap="round" opacity="0.7"/>
  <line x1="19" y1="45" x2="45" y2="45" stroke="#22c55e" stroke-width="1.6" stroke-linecap="round" opacity="0.45"/>
</svg>
