<svg width="200" height="48" viewBox="0 0 200 48" xmlns="http://www.w3.org/2000/svg">
  <defs>
    <linearGradient id="scanGlow" x1="0" y1="0" x2="1" y2="0">
      <stop offset="0%" stop-color="#22c55e" stop-opacity="0"/>
      <stop offset="50%" stop-color="#22c55e" stop-opacity="1"/>
      <stop offset="100%" stop-color="#22c55e" stop-opacity="0"/>
    </linearGradient>
  </defs>
  <!-- receipt icon -->
  <rect x="0" y="0" width="32" height="42" rx="3" fill="#1a2a1a" stroke="#22c55e" stroke-width="1.6"/>
  <polyline points="0,42 3,37 6,42 9,37 12,42 15,37 18,42 21,37 24,42 27,37 30,42 32,42" fill="none" stroke="#22c55e" stroke-width="1.6" stroke-linejoin="round"/>
  <line x1="5" y1="10" x2="27" y2="10" stroke="#22c55e" stroke-width="1.1" stroke-linecap="round" opacity="0.35"/>
  <line x1="5" y1="16" x2="21" y2="16" stroke="#22c55e" stroke-width="1.1" stroke-linecap="round" opacity="0.25"/>
  <rect x="0" y="20" width="32" height="9" fill="#22c55e" opacity="0.08"/>
  <line x1="-6" y1="24.5" x2="38" y2="24.5" stroke="url(#scanGlow)" stroke-width="1.8"/>
  <line x1="-6" y1="20" x2="-6" y2="29" stroke="#22c55e" stroke-width="1.4" stroke-linecap="round" opacity="0.7"/>
  <line x1="38" y1="20" x2="38" y2="29" stroke="#22c55e" stroke-width="1.4" stroke-linecap="round" opacity="0.7"/>
  <line x1="5" y1="32" x2="27" y2="32" stroke="#22c55e" stroke-width="1.4" stroke-linecap="round" opacity="0.45"/>
  <!-- wordmark -->
  <text x="48" y="30" font-family="-apple-system,BlinkMacSystemFont,sans-serif" font-size="24" font-weight="700" fill="#ffffff" letter-spacing="-0.5">Slip</text>
  <text x="97" y="30" font-family="-apple-system,BlinkMacSystemFont,sans-serif" font-size="24" font-weight="700" fill="#22c55e" letter-spacing="-0.5">Scan</text>
</svg>
